<?xml version="1.0" standalone="no"?>
<!DOCTYPE svg PUBLIC "-//W3C//DTD SVG 20010904//EN"
 "http://www.w3.org/TR/2001/REC-SVG-20010904/DTD/svg10.dtd">
<svg version="1.0" xmlns="http://www.w3.org/2000/svg"
 width="700.000000pt" height="700.000000pt" viewBox="0 0 700.000000 700.000000"
 preserveAspectRatio="xMidYMid meet">
<metadata>
Created by potrace 1.14, written by Peter Selinger 2001-2017
</metadata>
<g transform="translate(0.000000,700.000000) scale(0.100000,-0.100000)"
fill="#000000" stroke="none">
<path d="M0 3500 l0 -3500 3500 0 3500 0 0 3500 0 3500 -3500 0 -3500 0 0
-3500z m6518 1059 c62 -24 108 -94 118 -181 3 -29 7 -59 9 -65 5 -14 2 -14
-122 -15 -68 -1 -68 -1 -71 28 -6 68 -11 75 -45 72 -25 -2 -33 -8 -35 -27 -7
-45 8 -68 113 -171 140 -139 160 -178 160 -315 0 -91 -3 -105 -30 -160 -24
-47 -39 -65 -74 -84 -78 -43 -222 -28 -292 31 -20 17 -47 72 -54 112 -9 47
-13 174 -6 184 3 5 45 9 94 9 l87 -1 0 -67 c0 -86 12 -119 43 -119 35 0 47 19
47 72 0 74 -18 105 -124 208 -123 121 -151 172 -148 276 2 122 54 200 148 223
44 11 140 6 182 -10z m-5853 -31 c10 -63 18 -125 30 -218 4 -30 9 -64 11 -75
2 -11 7 -45 10 -75 3 -30 9 -70 14 -89 5 -19 6 -39 3 -44 -3 -6 -1 -7 4 -4 6
4 13 30 16 59 3 29 8 69 10 88 9 62 28 204 32 230 2 14 6 50 10 80 11 98 -2
90 161 90 l144 0 0 -473 0 -473 -84 -1 c-71 -1 -85 1 -88 15 -2 10 -4 153 -3
319 0 166 -1 300 -3 299 -3 -4 -10 -37 -18 -86 -3 -19 -7 -46 -9 -60 -2 -14
-6 -38 -9 -55 -8 -45 -25 -155 -31 -200 -5 -36 -11 -70 -30 -184 -3 -19 -8
-38 -10 -42 -6 -8 -149 -9 -163 0 -6 3 -13 26 -16 51 -3 25 -7 56 -10 70 -3
14 -7 41 -10 60 -5 29 -52 307 -73 425 -3 17 -6 31 -8 33 -2 2 -3 -129 -3
-290 0 -161 -1 -307 -1 -324 l-1 -30 -82 0 -83 1 -3 473 -2 472 144 0 144 0 7
-42z m701 -428 c0 -541 14 -480 -111 -477 l-71 1 2 466 c0 256 2 468 3 473 0
4 41 7 89 7 l89 0 -1 -470z m452 378 l-3 -93 -80 -1 c-44 -1 -85 -2 -91 -3 -8
-1 -11 -30 -10 -88 l1 -88 83 -1 c45 -1 84 -3 87 -5 4 -4 8 -126 6 -160 -1
-14 -14 -16 -82 -15 -46 1 -83 -3 -87 -9 -4 -5 -7 -54 -7 -107 l-1 -98 98 0
c80 0 98 -3 99 -15 0 -8 1 -31 1 -50 0 -19 -1 -55 -1 -79 l-1 -43 -192 1 -193
1 -1 473 -2 472 189 0 190 0 -3 -92z m264 80 c2 -7 3 -183 3 -390 -1 -333 1
-378 15 -379 8 -1 51 -2 95 -3 l80 -1 1 -81 1 -81 -191 1 -191 1 -1 465 c0
256 1 468 3 473 7 13 180 8 185 -5z m626 -80 l-3 -92 -87 0 c-52 0 -89 -5 -91
-11 -2 -5 -3 -46 -3 -90 l1 -80 83 -1 c45 -1 85 -4 88 -7 5 -4 8 -111 5 -157
-1 -13 -16 -16 -82 -15 -44 0 -84 -4 -87 -10 -4 -5 -7 -54 -7 -107 l0 -98 97
0 c111 0 100 11 100 -100 0 -33 -1 -66 -1 -73 -1 -11 -41 -14 -196 -14 l-195
1 0 473 0 473 190 0 191 0 -3 -92z m272 86 c0 -3 9 -49 19 -102 31 -154 42
-215 47 -251 13 -95 20 -41 20 146 l-1 208 93 3 92 3 0 -475 0 -474 -92 2 -92
1 -17 75 c-10 41 -20 89 -22 105 -3 17 -16 82 -28 145 l-24 115 -3 -221 -2
-221 -93 1 -92 1 -1 465 c0 256 1 468 3 473 5 8 193 10 193 1z m731 -1 c1 -5
2 -45 3 -90 1 -62 -2 -83 -11 -84 -7 0 -32 -2 -55 -2 l-43 -2 -2 -360 c-1
-198 -2 -369 -2 -381 -1 -19 -7 -20 -93 -20 l-93 1 -1 380 0 380 -30 2 c-16 0
-41 2 -56 2 l-28 1 0 90 0 90 205 0 c113 0 206 -3 206 -7z m435 -85 c1 -100
15 -90 -119 -91 l-68 -1 3 -90 3 -91 65 -1 c123 -3 110 8 110 -92 l0 -89 -87
1 -88 1 -3 -107 -3 -107 98 -3 98 -3 0 -90 0 -90 -188 -1 c-103 -1 -190 3
-193 7 -4 7 -8 782 -5 917 l1 22 188 -2 187 -3 1 -87z m461 66 c52 -37 72
-102 74 -232 1 -89 -17 -148 -53 -174 l-29 -20 21 -15 c43 -30 50 -69 50 -281
l0 -199 -90 0 c-49 0 -91 3 -91 6 -1 3 -3 87 -4 186 -2 219 -5 235 -45 235
l-30 0 0 -213 0 -214 -95 1 -95 0 0 474 0 474 179 -4 c163 -3 182 -5 208 -24z
m286 19 c3 -5 8 -40 12 -80 4 -40 8 -85 10 -100 2 -15 7 -59 10 -98 4 -38 9
-81 11 -95 2 -14 7 -61 10 -105 4 -44 10 -91 15 -105 7 -23 7 -22 9 10 1 19 3
42 4 50 2 8 6 51 10 95 8 98 16 178 21 225 2 19 7 67 11 105 4 39 8 77 9 85 1
12 19 15 91 15 56 0 88 -4 87 -10 -1 -6 -4 -39 -8 -73 -4 -35 -8 -72 -10 -82
-2 -10 -6 -43 -9 -72 -4 -29 -9 -71 -11 -93 -3 -22 -8 -58 -10 -80 -3 -22 -7
-56 -10 -75 -2 -19 -7 -60 -10 -90 -4 -30 -8 -66 -10 -80 -2 -14 -7 -50 -10
-80 -3 -30 -8 -66 -10 -80 -2 -14 -6 -48 -10 -76 l-6 -50 -130 -1 c-129 0
-129 0 -130 23 -1 13 -2 27 -3 32 -2 7 -16 115 -31 242 -3 25 -7 61 -10 80 -2
19 -7 58 -10 85 -7 59 -15 120 -20 155 -2 14 -6 54 -10 90 -3 36 -8 72 -10 80
-2 8 -7 44 -10 80 -4 36 -9 68 -12 73 -2 4 36 7 86 7 49 0 92 -3 94 -7z m747
-85 l0 -93 -93 0 -92 0 -3 -87 c-3 -100 -5 -98 98 -97 30 1 61 1 68 0 8 -1 12
-26 12 -90 l0 -88 -72 1 c-113 3 -106 10 -107 -110 l-1 -104 100 0 100 0 0
-93 0 -94 -195 0 -195 1 0 473 0 473 190 0 190 0 0 -92z m239 10 c7 -46 15
-94 17 -108 7 -53 22 -125 24 -115 1 6 3 19 5 30 6 46 36 222 41 248 l6 27 89
0 c75 0 89 -3 89 -16 0 -9 -11 -64 -25 -123 -14 -58 -34 -142 -45 -186 -10
-44 -31 -132 -46 -195 -24 -98 -28 -137 -28 -270 l-1 -155 -87 -1 -88 -2 0 56
c-2 237 -7 287 -49 457 -23 94 -44 180 -47 193 -2 13 -16 69 -29 125 -14 56
-25 105 -25 110 0 4 42 7 93 7 l93 0 13 -82z m-5074 -1207 l30 -1 0 -149 c0
-145 6 -180 18 -104 4 21 8 45 10 53 2 8 12 51 22 95 26 115 21 111 106 108
40 -2 74 -5 76 -7 2 -2 -8 -50 -22 -107 -15 -57 -28 -112 -30 -122 -2 -9 -11
-43 -19 -75 l-15 -58 54 -214 c30 -118 52 -216 50 -218 -4 -4 -106 -6 -147 -3
-16 1 -24 26 -43 134 -3 15 -9 37 -14 49 -5 13 -9 28 -9 33 -2 31 -26 134 -31
130 -3 -3 -5 -83 -5 -177 l-1 -171 -65 0 c-36 1 -72 2 -80 2 -13 1 -15 52 -15
398 0 389 0 398 20 404 11 3 34 4 50 3 17 -2 44 -3 60 -3z m454 -6 c3 -4 6
-142 7 -308 0 -166 4 -312 8 -324 5 -15 15 -23 31 -23 16 0 26 8 31 23 4 12 8
158 8 325 1 217 4 305 13 310 10 6 31 7 121 3 l22 -1 0 -324 c0 -347 -4 -382
-53 -434 -57 -62 -203 -69 -268 -14 -66 55 -69 70 -69 442 l0 336 71 -3 c40
-1 74 -5 78 -8z m424 6 l27 -1 0 -319 c0 -266 2 -321 15 -331 21 -18 48 -8 56
21 3 14 6 160 6 323 0 163 3 299 6 303 4 3 38 6 76 7 62 1 70 -1 73 -19 2 -11
3 -159 2 -330 -1 -295 -2 -312 -23 -360 -31 -73 -75 -99 -166 -102 -90 -2
-138 22 -175 87 l-25 45 -3 330 c-1 181 -1 334 1 340 3 5 26 9 53 8 27 -1 61
-2 77 -2z m463 0 c20 -1 21 -3 20 -313 -1 -172 0 -322 2 -334 3 -19 10 -20 70
-19 100 2 98 4 94 -70 -3 -59 -6 -65 -25 -66 -27 -1 -278 -1 -292 0 -6 1 -10
141 -10 401 0 451 -9 407 80 403 22 -1 49 -2 61 -2z m372 -6 c4 -3 7 -142 8
-308 0 -166 4 -312 8 -324 11 -35 54 -31 63 5 3 15 6 163 6 330 0 339 -9 304
77 304 92 0 82 42 78 -339 -3 -320 -4 -340 -24 -378 -38 -73 -118 -106 -220
-90 -64 9 -118 60 -134 124 -7 31 -12 164 -13 365 -2 308 -2 315 18 318 35 5
126 1 133 -7z m429 6 l22 -1 0 -315 c-1 -233 2 -320 11 -330 15 -18 46 -19 57
-2 4 6 8 153 9 324 0 172 3 315 6 318 3 3 37 7 76 8 56 2 72 -1 74 -13 2 -8 3
-153 2 -321 -1 -318 -6 -370 -44 -417 -68 -82 -248 -80 -307 4 -38 53 -42 97
-43 424 l0 319 22 3 c21 3 48 3 115 -1z m693 -10 c3 -1 5 -68 4 -151 -1 -82 0
-150 2 -150 1 0 8 26 15 58 7 31 13 59 14 62 1 3 9 41 19 85 10 44 22 84 26
89 5 5 42 9 84 10 l75 1 -5 -25 c-4 -14 -13 -52 -21 -85 -8 -33 -16 -67 -18
-75 -2 -8 -13 -53 -24 -100 l-21 -85 51 -205 c29 -113 52 -211 53 -219 1 -10
-14 -13 -56 -13 -118 1 -104 -9 -129 100 -12 53 -24 102 -25 107 -14 73 -27
132 -33 142 -3 7 -6 -67 -6 -165 l0 -177 -29 -5 c-16 -3 -52 -4 -80 -2 l-52 4
0 398 0 399 56 3 c47 3 80 2 100 -1z m615 -3 c2 -3 18 -172 31 -323 2 -22 8
-87 14 -145 5 -58 12 -125 14 -150 3 -25 7 -75 11 -112 l7 -66 -67 -4 c-37 -1
-71 -1 -76 3 -9 5 -17 50 -18 99 -1 24 -5 26 -51 27 l-50 2 -1 -34 c-1 -19 -3
-39 -4 -45 -1 -5 -3 -19 -4 -30 -1 -18 -8 -20 -76 -20 -71 0 -80 3 -77 31 1 3
3 37 6 75 3 38 8 87 10 109 5 36 20 191 31 306 2 25 7 79 11 120 4 41 8 81 10
89 1 8 3 27 3 42 1 23 6 27 34 30 38 4 238 0 242 -4z m275 -394 c0 -313 -3
-403 -12 -405 -7 -2 -43 -2 -79 1 l-66 5 0 390 c0 215 1 395 4 400 2 6 37 10
78 10 l75 0 0 -401z m183 397 l37 -1 1 -152 1 -153 23 90 c13 50 29 118 35
153 14 69 6 64 113 64 32 0 60 -2 61 -4 2 -1 -17 -84 -41 -183 l-44 -180 42
-165 c22 -91 43 -175 45 -187 2 -12 9 -34 14 -48 6 -15 10 -28 10 -31 0 -3
-39 -3 -87 -2 -67 2 -87 6 -89 18 -3 17 -33 157 -39 180 -2 8 -10 43 -17 77
-8 34 -16 65 -20 68 -3 4 -6 -71 -5 -167 l1 -173 -81 -3 -80 -3 0 400 c0 399
0 400 21 403 11 2 30 3 41 2 11 -1 37 -3 58 -3z m462 -3 c8 -5 13 -684 6 -785
-1 -9 -23 -13 -76 -13 l-75 0 -1 33 c0 17 0 196 -1 397 l-1 365 29 5 c38 7
107 6 119 -2z m235 -329 l5 -334 79 0 80 0 1 -58 c0 -32 -2 -62 -5 -67 -4 -6
-71 -11 -160 -11 -154 -1 -154 -1 -160 23 -3 12 -5 192 -4 398 l0 375 35 5
c19 3 54 5 79 4 l45 -1 5 -334z m348 332 l22 -1 0 -330 c0 -181 3 -330 8 -331
4 -1 41 -2 82 -3 l75 -1 1 -68 0 -67 -68 -1 c-37 0 -93 0 -123 0 -30 0 -73 0
-95 0 l-40 1 0 399 0 400 38 3 c20 2 46 2 57 1 11 -1 30 -2 43 -2z m542 0 c15
-1 18 -43 11 -146 -1 -6 -32 -9 -75 -9 -48 1 -76 -2 -78 -10 -2 -6 -4 -40 -4
-76 l1 -65 75 -5 75 -5 2 -72 2 -72 -77 -3 -77 -3 0 -83 c0 -46 4 -87 10 -90
5 -4 39 -7 75 -8 36 -1 70 -2 75 -3 6 0 10 -32 10 -73 l0 -73 -100 -5 c-55 -3
-130 -4 -167 -2 l-68 4 0 398 0 399 43 3 c33 2 172 2 267 -1z"/>
<path d="M4428 4392 c-14 -3 -16 -17 -16 -88 l0 -84 33 0 c38 0 47 16 51 85 3
69 -19 98 -68 87z"/>
<path d="M4109 3094 c-1 -21 -3 -50 -4 -64 -2 -23 -16 -215 -20 -270 -1 -18 5
-27 19 -31 24 -6 58 0 52 10 -2 3 -7 44 -10 91 -16 206 -25 292 -31 299 -3 2
-6 -13 -6 -35z"/>
</g>
</svg>
