<?xml version="1.0" encoding="UTF-8"?>
<svg id="Layer_2" data-name="Layer 2" xmlns="http://www.w3.org/2000/svg" viewBox="0 0 1080 385.71">
  <defs>
    <style>
      .cls-1 {
        fill: #fff;
      }

      .cls-1, .cls-2, .cls-3 {
        stroke-width: 0px;
      }

      .cls-2 {
        fill: #231f20;
      }

      .cls-3 {
        fill: #ed2024;
      }
    </style>
  </defs>
  <g id="Layer_1-2" data-name="Layer 1">
    <g>
      <rect class="cls-2" width="1080" height="385.71"/>
      <g>
        <path class="cls-3" d="M687.59,54.96h-6.8v27.02h7.04c4.03,0,6.05-4.39,6.05-13.18,0-5.69-.44-9.42-1.33-11.19-.88-1.77-2.54-2.65-4.97-2.65Z"/>
        <path class="cls-3" d="M0,0v192.86h1080V0H0ZM171.07,173.8h-26.68v-105.08l-16.74,105.08h-26.19l-17.73-105.08v105.08h-26.35V27.95h44.42l12.26,88.92,12.18-88.92h44.83v145.85ZM210.85,173.8h-28.18V27.95h28.18v145.85ZM282.69,173.8h-60.25V27.95h58.34v28.18h-28.67v28.42h27.51v27.43h-27.51v33.4h30.58v28.42ZM351.47,173.8h-59.17V27.95h29.17v120.99h30v24.86ZM420.01,173.8h-60.25V27.95h58.34v28.18h-28.67v28.42h27.51v27.43h-27.51v33.4h30.58v28.42ZM501.22,173.8h-28.51l-14.58-72.92v72.92h-28.51V27.95h30l13.42,69.86V27.95h28.18v145.85ZM573.15,55.96h-17.32v117.84h-29.17V55.96h-17.32v-28.01h63.81v28.01ZM641.51,173.8h-60.25V27.95h58.34v28.18h-28.67v28.42h27.51v27.43h-27.51v33.4h30.58v28.42ZM717.63,104.56c1.85,3.62,2.78,8.3,2.78,14.05v55.19h-28.76v-57.1c0-4.25-.87-6.89-2.61-7.91-1.74-1.02-4.54-1.53-8.41-1.53v66.54h-29.5V27.95h44.75c7.46,0,13.09,1.7,16.91,5.1,3.81,3.4,6.37,8.15,7.67,14.25,1.3,6.11,1.95,13.27,1.95,21.5s-1.01,14.31-3.02,19.06c-2.02,4.75-5.82,8.04-11.39,9.86,4.58.94,7.8,3.22,9.65,6.84ZM785.21,173.8h-39.78l-17.98-145.93h27.76l10.69,99.28,9.53-99.28h27.76l-17.98,145.93ZM871.89,173.8h-60.25V27.95h58.34v28.18h-28.67v28.42h27.51v27.43h-27.51v33.4h30.58v28.42ZM926.66,125.82v47.98h-27.51v-47.98l-23.29-97.87h28.92l8.12,49.39,8.12-49.39h28.84l-23.2,97.87ZM1018.27,163.48c-5.05,7.76-13.85,11.64-26.39,11.64-13.31,0-22.91-3.31-28.8-9.94-5.88-6.63-8.83-17.18-8.83-31.66v-14.25h28.84v18.23c0,3.37.51,6.01,1.53,7.91,1.02,1.91,2.8,2.86,5.35,2.86s4.49-.77,5.51-2.32c1.02-1.55,1.53-4.09,1.53-7.62,0-4.47-.44-8.22-1.33-11.23-.88-3.01-2.42-5.88-4.6-8.62-2.18-2.73-5.21-5.93-9.07-9.57l-13.09-12.43c-9.78-9.23-14.67-19.78-14.67-31.66s2.89-21.9,8.66-28.42c5.77-6.52,14.13-9.78,25.07-9.78,13.37,0,22.86,3.56,28.47,10.69,5.61,7.13,8.41,17.96,8.41,32.48h-29.67v-10.03c0-1.99-.57-3.53-1.7-4.64-1.13-1.1-2.67-1.66-4.6-1.66-2.32,0-4.02.65-5.1,1.95-1.08,1.3-1.62,2.97-1.62,5.01s.55,4.25,1.66,6.63c1.1,2.38,3.29,5.11,6.55,8.2l16.82,16.16c3.37,3.2,6.46,6.59,9.28,10.15,2.82,3.56,5.08,7.71,6.8,12.43,1.71,4.72,2.57,10.48,2.57,17.28,0,13.7-2.53,24.43-7.58,32.19Z"/>
      </g>
      <g>
        <polygon class="cls-1" points="634.53 249.09 629.81 312.23 641.09 312.23 635.66 249.09 634.53 249.09"/>
        <path class="cls-1" d="M0,192.86v192.86h1080v-192.86H0ZM142.54,350.64l-13.54-60.11v60.11h-24.69v-124.16h24.55v49.74l11.57-49.74h24.97l-13.9,56.86,16.79,67.3h-25.75ZM231.43,317.42c0,11.29-2.45,19.84-7.34,25.64-4.89,5.81-12.51,8.71-22.86,8.71s-17.97-2.9-22.86-8.71c-4.89-5.81-7.34-14.36-7.34-25.64v-90.93h24.13v89.95c0,2.07.12,4.06.35,5.96.23,1.9.78,3.47,1.62,4.69.85,1.22,2.21,1.83,4.09,1.83s3.32-.6,4.16-1.8c.85-1.2,1.38-2.76,1.59-4.69.21-1.93.32-3.93.32-6v-89.95h24.13v90.93ZM299.86,317.42c0,11.29-2.45,19.84-7.34,25.64-4.89,5.81-12.51,8.71-22.86,8.71s-17.97-2.9-22.86-8.71c-4.89-5.81-7.34-14.36-7.34-25.64v-90.93h24.13v89.95c0,2.07.12,4.06.35,5.96.23,1.9.78,3.47,1.62,4.69.85,1.22,2.21,1.83,4.09,1.83s3.32-.6,4.16-1.8c.85-1.2,1.38-2.76,1.59-4.69.21-1.93.32-3.93.32-6v-89.95h24.13v90.93ZM359.75,350.64h-50.37v-124.16h24.83v103h25.54v21.16ZM425.71,317.42c0,11.29-2.45,19.84-7.34,25.64-4.89,5.81-12.51,8.71-22.86,8.71s-17.97-2.9-22.86-8.71c-4.89-5.81-7.34-14.36-7.34-25.64v-90.93h24.13v89.95c0,2.07.12,4.06.35,5.96.23,1.9.78,3.47,1.62,4.69.85,1.22,2.21,1.83,4.09,1.83s3.32-.6,4.16-1.8c.85-1.2,1.38-2.76,1.59-4.69.21-1.93.32-3.93.32-6v-89.95h24.13v90.93ZM494.14,317.42c0,11.29-2.45,19.84-7.34,25.64-4.89,5.81-12.51,8.71-22.86,8.71s-17.97-2.9-22.86-8.71c-4.89-5.81-7.34-14.36-7.34-25.64v-90.93h24.13v89.95c0,2.07.12,4.06.35,5.96.23,1.9.78,3.47,1.62,4.69.85,1.22,2.21,1.83,4.09,1.83s3.32-.6,4.16-1.8c.85-1.2,1.38-2.76,1.59-4.69.21-1.93.32-3.93.32-6v-89.95h24.13v90.93ZM575.77,352.09l-13.54-60.11v60.11h-24.69v-124.16h24.55v49.74l11.57-49.74h24.97l-13.9,56.86,16.79,67.3h-25.75ZM644.76,352.09l-1.76-20.04h-14.96l-1.55,20.04h-24.13l11.99-124.16h42.12l11.78,124.16h-23.49ZM698.73,352.09h-23.99v-124.16h23.99v124.16ZM746.84,352.09l-13.54-60.11v60.11h-24.69v-124.16h24.55v49.74l11.57-49.74h24.97l-13.9,56.86,16.79,67.3h-25.75ZM799.68,352.09h-23.99v-124.16h23.99v124.16ZM859.93,352.09h-50.37v-124.16h24.83v103h25.54v21.16ZM917.35,352.09h-50.37v-124.16h24.83v103h25.54v21.16ZM975.7,352.09h-51.29v-124.16h49.66v23.99h-24.41v24.2h23.42v23.35h-23.42v28.43h26.03v24.2Z"/>
      </g>
    </g>
  </g>
</svg>